<?xml version="1.0" encoding="utf-8"?>
<!-- Generator: Adobe Illustrator 16.0.0, SVG Export Plug-In . SVG Version: 6.00 Build 0)  -->
<!DOCTYPE svg PUBLIC "-//W3C//DTD SVG 1.1//EN" "http://www.w3.org/Graphics/SVG/1.1/DTD/svg11.dtd">
<svg version="1.1" id="Layer_1" xmlns="http://www.w3.org/2000/svg" xmlns:xlink="http://www.w3.org/1999/xlink" x="0px" y="0px"
	 width="230px" height="230px" viewBox="0 0 230 230" enable-background="new 0 0 230 230" xml:space="preserve">
<line class="line-a" fill="none" stroke="#000000" stroke-miterlimit="10" x1="20.703" y1="203.46" x2="20.703" y2="44.001"/>
<line fill="none" stroke="#000000" stroke-miterlimit="10" x1="20.703" y1="44.001" x2="66.649" y2="26.771"/>
<line fill="none" stroke="#000000" stroke-miterlimit="10" x1="66.649" y1="26.771" x2="122.055" y2="26.771"/>
<line fill="none" stroke="#000000" stroke-miterlimit="10" x1="122.055" y1="26.771" x2="87.257" y2="44.001"/>
<line fill="none" stroke="#000000" stroke-miterlimit="10" x1="87.257" y1="44.001" x2="20.703" y2="44.001"/>
<line fill="none" stroke="#000000" stroke-miterlimit="10" x1="87.257" y1="44.001" x2="190.298" y2="179.136"/>
<line fill="none" stroke="#000000" stroke-miterlimit="10" x1="190.298" y1="179.136" x2="190.298" y2="203.46"/>
<line fill="none" stroke="#000000" stroke-miterlimit="10" x1="190.298" y1="203.46" x2="20.703" y2="203.46"/>
<line fill="none" stroke="#000000" stroke-miterlimit="10" x1="190.298" y1="179.136" x2="213.271" y2="144"/>
<line fill="none" stroke="#000000" stroke-miterlimit="10" x1="213.271" y1="144" x2="122.055" y2="26.771"/>
<line fill="none" stroke="#000000" stroke-miterlimit="10" x1="213.271" y1="144" x2="213.271" y2="165.621"/>
<line fill="none" stroke="#000000" stroke-miterlimit="10" x1="213.271" y1="165.621" x2="190.298" y2="203.46"/>
<text transform="matrix(1 0 0 1 91.2598 23.0703)" font-family="'SavoyeLetPlain'" font-size="16.4927">t</text>
<text transform="matrix(1 0 0 1 11.0703 123.7305)" font-family="'SavoyeLetPlain'" font-size="16.4927">h</text>
<text transform="matrix(1 0 0 1 100.7598 219.0283)" font-family="'SavoyeLetPlain'" font-size="16.4927">l</text>
<text transform="matrix(1 0 0 1 217.3281 156.5283)" font-family="'SavoyeLetPlain'" font-size="16.4927">s</text>
<text transform="matrix(1 0 0 1 36.2598 31.2168)" font-family="'SavoyeLetPlain'" font-size="16.4927">w</text>
</svg>
